<svg xmlns="http://www.w3.org/2000/svg" viewBox="0 0 44.9 44.9"><g id="Layer_2" data-name="Layer 2"><g id="Layer_1-2" data-name="Layer 1"><path d="M26.75,22.45a4.3,4.3,0,1,1-4.3-4.3A4.31,4.31,0,0,1,26.75,22.45Z" style="fill:#fff"/><path d="M32.5,14.85a4.26,4.26,0,0,0-2.45-2.45A6.82,6.82,0,0,0,27.66,12c-1.36-.07-1.77-.08-5.21-.08s-3.85,0-5.21.08a6.82,6.82,0,0,0-2.39.44,4.19,4.19,0,0,0-2.45,2.45A6.82,6.82,0,0,0,12,17.24c-.07,1.36-.08,1.77-.08,5.21s0,3.85.08,5.21a6.82,6.82,0,0,0,.44,2.39,4.26,4.26,0,0,0,2.45,2.45,6.82,6.82,0,0,0,2.39.44C18.6,33,19,33,22.45,33s3.85,0,5.21-.08a6.88,6.88,0,0,0,2.39-.44,4.28,4.28,0,0,0,2.45-2.45,7.33,7.33,0,0,0,.44-2.39c.06-1.36.08-1.77.08-5.21s0-3.85-.08-5.21A6.82,6.82,0,0,0,32.5,14.85Zm-10,14.22a6.62,6.62,0,1,1,6.62-6.62A6.62,6.62,0,0,1,22.45,29.07Zm6.88-11.95a1.55,1.55,0,1,1,1.55-1.55A1.56,1.56,0,0,1,29.33,17.12Z" style="fill:#fff"/><path d="M22.45,0A22.45,22.45,0,1,0,44.9,22.45,22.45,22.45,0,0,0,22.45,0ZM35.26,27.76a9.32,9.32,0,0,1-.6,3.13,6.6,6.6,0,0,1-3.77,3.77,9.32,9.32,0,0,1-3.13.6c-1.37.06-1.81.08-5.31.08s-3.94,0-5.32-.08a9.31,9.31,0,0,1-3.12-.6,6.49,6.49,0,0,1-3.77-3.77,9.32,9.32,0,0,1-.6-3.13c-.07-1.37-.08-1.81-.08-5.31s0-3.94.08-5.32a9.31,9.31,0,0,1,.6-3.12A6.49,6.49,0,0,1,14,10.24a9.31,9.31,0,0,1,3.12-.6c1.38-.07,1.82-.08,5.32-.08s3.94,0,5.31.08a9.32,9.32,0,0,1,3.13.6A6.49,6.49,0,0,1,34.66,14a9.31,9.31,0,0,1,.6,3.12c.07,1.38.08,1.82.08,5.32S35.33,26.39,35.26,27.76Z" style="fill:#fff"/></g></g></svg>