<svg xmlns="http://www.w3.org/2000/svg" viewBox="0 0 566.23 566.23"><g id="Layer_2" data-name="Layer 2"><g id="Layer_1-2" data-name="Layer 1"><line x1="258.95" y1="208.63" x2="225.09" y2="400.68" style="fill:none;stroke:#231f20;stroke-linecap:round;stroke-linejoin:round;stroke-width:25px"/><circle cx="480.08" cy="188.49" r="15.94" style="fill:#231f20"/><path d="M376.79,537.08a270,270,0,0,1-93.67,16.65C133.66,553.73,12.5,432.57,12.5,283.12S133.66,12.5,283.12,12.5,553.73,133.66,553.73,283.12c0,72.46-26.7,140.07-73.08,188.64,0,0-14.32,17-28.53,12.93a303.14,303.14,0,0,1-54.4-21.11C294,410.86,280.8,320.08,280.8,320.08,346.34,300.42,388,239.53,384.57,183.54c-3.71-61.18-65.64-90.1-180.24-47.5S51.64,301.72,85.27,288.4c38.5-15.24,137.89-51.74,307-85.82q16.13-3.26,33.26-6.07,7.33-1.2,14.83-2.33" style="fill:none;stroke:#231f20;stroke-linecap:round;stroke-linejoin:round;stroke-width:25px"/></g></g></svg>