<svg xmlns="http://www.w3.org/2000/svg" viewBox="0 0 44.9 44.9"><g id="Layer_2" data-name="Layer 2"><g id="Layer_1-2" data-name="Layer 1"><path d="M22.45,0A22.45,22.45,0,1,0,44.9,22.45,22.45,22.45,0,0,0,22.45,0ZM32.7,17.5c0,.22,0,.45,0,.67A14.56,14.56,0,0,1,18.05,32.83h0a14.57,14.57,0,0,1-7.89-2.31c.4,0,.81.07,1.22.07a10.34,10.34,0,0,0,6.4-2.21A5.16,5.16,0,0,1,13,24.8a4.87,4.87,0,0,0,2.33-.09,5.15,5.15,0,0,1-4.14-5.05V19.6a5.14,5.14,0,0,0,2.34.64,5.18,5.18,0,0,1-1.6-6.88,14.64,14.64,0,0,0,10.62,5.39,5.69,5.69,0,0,1-.13-1.18,5.15,5.15,0,0,1,8.91-3.52,10.33,10.33,0,0,0,3.28-1.25,5.23,5.23,0,0,1-2.27,2.85,10.46,10.46,0,0,0,3-.81A10.32,10.32,0,0,1,32.7,17.5Z" style="fill:#fff"/></g></g></svg>