<svg xmlns="http://www.w3.org/2000/svg" viewBox="0 0 44.9 44.9"><g id="Layer_2" data-name="Layer 2"><g id="Layer_1-2" data-name="Layer 1"><path d="M19.65,26.66,27,22.45l-7.31-4.21Z" style="fill:#fff"/><path d="M22.45,0A22.45,22.45,0,1,0,44.9,22.45,22.45,22.45,0,0,0,22.45,0Zm14,22.47a36.88,36.88,0,0,1-.58,6.75,3.5,3.5,0,0,1-2.47,2.47c-2.2.58-11,.58-11,.58s-8.76,0-11-.6A3.5,3.5,0,0,1,9,29.2a36.76,36.76,0,0,1-.58-6.75A36.94,36.94,0,0,1,9,15.7a3.56,3.56,0,0,1,2.47-2.49c2.2-.58,11-.58,11-.58s8.78,0,11,.6A3.5,3.5,0,0,1,35.9,15.7,35.32,35.32,0,0,1,36.48,22.47Z" style="fill:#fff"/></g></g></svg>